<svg width="271" height="81" viewBox="0 0 271 81" fill="none" xmlns="http://www.w3.org/2000/svg">
<path d="M22.6338 35.3574L20.7441 34.9375C20.4922 32.8099 20.0583 31.0742 19.4424 29.7305C17.1188 29.5625 14.7952 29.4785 12.4717 29.4785C10.484 29.4785 7.5306 29.5625 3.61133 29.7305C3.44336 30.3184 3.12142 32.362 2.64551 35.8613L0.839844 35.6934C0.279948 32.6979 0 30.1224 0 27.9668C0 27.8548 0 27.6589 0 27.3789C0.0279948 27.099 0.0419922 26.889 0.0419922 26.749C0.069987 26.749 0.531901 26.749 1.42773 26.749C2.32357 26.721 2.78548 26.707 2.81348 26.707C3.54134 25.2233 4.12923 23.6276 4.57715 21.9199C5.05306 20.1842 5.375 18.3366 5.54297 16.377C5.71094 14.3893 5.82292 12.6536 5.87891 11.1699C5.9349 9.6582 5.96289 7.74056 5.96289 5.41699C5.96289 3.09342 5.97689 1.35775 6.00488 0.209961C7.96452 0.069987 12.3317 0 19.1064 0L20.0303 26.3291C20.4782 26.3851 20.9401 26.4271 21.416 26.4551C21.8919 26.4831 22.3538 26.5111 22.8018 26.5391C22.7178 27.127 22.6758 27.8548 22.6758 28.7227C22.6758 29.1706 22.6898 29.8704 22.7178 30.8223C22.7458 31.8021 22.7598 32.5299 22.7598 33.0059C22.7598 33.9577 22.7178 34.7415 22.6338 35.3574ZM6.17285 26.4551C6.92871 26.4551 8.0625 26.4831 9.57422 26.5391C11.0859 26.5671 12.2057 26.5811 12.9336 26.5811C13.9974 26.5811 15.1032 26.5391 16.251 26.4551C16.307 24.6914 16.335 21.9339 16.335 18.1826V9.82617C16.335 6.49479 16.363 4.01725 16.4189 2.39355C15.6351 2.33757 15.0472 2.30957 14.6553 2.30957C14.0114 2.30957 13.0736 2.35156 11.8418 2.43555C10.638 2.51953 9.82617 2.57552 9.40625 2.60352C9.32227 3.86328 9.22428 5.85091 9.1123 8.56641C9.00033 11.2539 8.88835 13.3395 8.77637 14.8232C8.66439 16.307 8.38444 18.1546 7.93652 20.3662C7.5166 22.5498 6.92871 24.5794 6.17285 26.4551ZM25.3633 21.0381C25.3633 19.9183 25.4753 18.6725 25.6992 17.3008C25.9512 15.929 26.3151 14.4873 26.791 12.9756C27.2669 11.4639 27.9808 10.2041 28.9326 9.19629C29.8844 8.18848 30.9902 7.68457 32.25 7.68457C34.9375 7.68457 37.0931 8.90234 38.7168 11.3379C40.3405 13.7454 41.1523 16.4329 41.1523 19.4004C41.1523 20.6602 41.0124 21.9199 40.7324 23.1797C40.4805 24.4115 40.0745 25.6292 39.5146 26.833C38.9548 28.0368 38.1429 29.0446 37.0791 29.8564C36.0433 30.6403 34.8255 31.0882 33.4258 31.2002C30.8503 30.8643 28.8626 29.7725 27.4629 27.9248C26.0632 26.0492 25.3633 23.7536 25.3633 21.0381ZM32.502 9.86816C31.5221 9.98014 30.6963 10.876 30.0244 12.5557C29.3525 14.2354 28.9186 15.873 28.7227 17.4688C28.5267 19.0365 28.4287 20.4222 28.4287 21.626C28.4287 23.1937 28.9046 24.6494 29.8564 25.9932C30.8363 27.3089 31.9281 27.9668 33.1318 27.9668C33.9997 27.9668 34.7835 27.6309 35.4834 26.959C36.1833 26.2871 36.7292 25.4613 37.1211 24.4814C37.541 23.4736 37.849 22.4658 38.0449 21.458C38.2689 20.4502 38.3809 19.5544 38.3809 18.7705C38.3809 16.4749 37.863 14.4733 36.8271 12.7656C35.7913 11.0579 34.3496 10.0921 32.502 9.86816ZM73.0244 9.28027L75.8799 9.02832C77.2796 12.8076 78.7074 19.8483 80.1631 30.1504C79.6872 30.2624 79.2113 30.3184 78.7354 30.3184C78.3154 30.3184 77.8255 30.2484 77.2656 30.1084C76.8737 28.5687 76.3978 25.8532 75.8379 21.9619C75.306 18.0706 74.8301 15.3132 74.4102 13.6895C73.0384 15.929 71.1908 20.0443 68.8672 26.0352C68.6712 26.0632 68.3213 26.1191 67.8174 26.2031C67.3415 26.2871 66.9775 26.3291 66.7256 26.3291C66.4176 26.3291 66.0537 26.2871 65.6338 26.2031C65.1859 25.0553 64.514 23.2217 63.6182 20.7021C62.7503 18.1546 62.0505 16.237 61.5186 14.9492C58.8311 21.8359 57.1514 26.931 56.4795 30.2344L54.8418 29.7725C54.9818 27.6449 55.7516 23.9355 57.1514 18.6445C58.5511 13.3255 59.391 9.93815 59.6709 8.48242C60.0068 8.48242 60.3848 8.52441 60.8047 8.6084C61.2526 8.66439 61.5885 8.69238 61.8125 8.69238C62.5404 9.95215 63.5342 12.3737 64.7939 15.957C66.0537 19.5124 66.8936 21.738 67.3135 22.6338C69.4411 16.5869 71.3447 12.1357 73.0244 9.28027ZM98.8076 25.9092L99.2275 27.7568C97.9958 28.2048 96.1621 28.7087 93.7266 29.2686C91.319 29.8005 89.5273 30.0664 88.3516 30.0664C87.1478 30.0664 86.098 29.6745 85.2021 28.8906C84.3063 28.0788 83.6344 27.057 83.1865 25.8252C82.7386 24.5654 82.4027 23.3337 82.1787 22.1299C81.9827 20.8981 81.8848 19.6943 81.8848 18.5186C81.8848 11.5199 85.0482 8.02051 91.375 8.02051C92.8867 8.02051 94.2165 8.51042 95.3643 9.49023C96.512 10.4421 97.0859 11.6878 97.0859 13.2275C97.0859 14.0674 96.848 14.8092 96.3721 15.4531C95.9242 16.097 95.3643 16.6149 94.6924 17.0068C94.0485 17.3708 93.2087 17.7067 92.1729 18.0146C91.165 18.3226 90.2692 18.5465 89.4854 18.6865C88.7015 18.8265 87.7637 18.9805 86.6719 19.1484C85.5801 19.3164 84.8242 19.4424 84.4043 19.5264C84.4323 20.3382 84.4743 21.0521 84.5303 21.668C84.6143 22.2839 84.7542 22.9557 84.9502 23.6836C85.1742 24.3835 85.4541 24.9714 85.79 25.4473C86.154 25.8952 86.6439 26.2731 87.2598 26.5811C87.8757 26.889 88.6035 27.043 89.4434 27.043C90.4512 27.043 91.6829 26.959 93.1387 26.791C94.5944 26.5951 95.8822 26.3991 97.002 26.2031C98.1497 26.0072 98.7516 25.9092 98.8076 25.9092ZM84.5723 16.9229C88.3796 15.8311 91.501 14.6833 93.9365 13.4795C93.7406 12.5557 93.4746 11.8838 93.1387 11.4639C92.8027 11.0439 92.2988 10.834 91.627 10.834C89.9193 10.834 88.3656 11.4219 86.9658 12.5977C85.5941 13.7734 84.7962 15.2152 84.5723 16.9229ZM101.411 7.89453L103.763 8.31445C103.763 8.90234 103.777 9.33626 103.805 9.61621C105.344 8.63639 106.898 8.14648 108.466 8.14648C111.013 8.14648 113.001 9.23828 114.429 11.4219C115.856 13.6055 116.57 16.083 116.57 18.8545C116.57 20.2542 116.458 21.598 116.234 22.8857C116.038 24.1455 115.674 25.4473 115.143 26.791C114.611 28.1068 113.785 29.1706 112.665 29.9824C111.573 30.7663 110.243 31.1582 108.676 31.1582C107.192 31.1582 105.764 30.7663 104.393 29.9824C104.505 34.8815 104.603 38.5208 104.687 40.9004C104.435 41.7682 103.945 42.2021 103.217 42.2021C102.713 42.2021 102.223 41.9922 101.747 41.5723C101.299 41.1803 101.019 40.6904 100.907 40.1025L101.411 7.89453ZM104.141 12.3457L104.267 25.9092C104.603 26.5811 105.12 27.127 105.82 27.5469C106.52 27.9388 107.29 28.1348 108.13 28.1348C109.222 28.1348 110.146 27.7848 110.901 27.085C111.685 26.3851 112.231 25.4613 112.539 24.3135C112.875 23.1377 113.099 22.0459 113.211 21.0381C113.351 20.0303 113.421 18.9665 113.421 17.8467C113.421 13.0876 111.811 10.708 108.592 10.708C107.556 10.708 106.59 10.862 105.694 11.1699C104.826 11.4499 104.309 11.8418 104.141 12.3457ZM119.972 21.0381C119.972 19.9183 120.084 18.6725 120.308 17.3008C120.56 15.929 120.924 14.4873 121.399 12.9756C121.875 11.4639 122.589 10.2041 123.541 9.19629C124.493 8.18848 125.599 7.68457 126.858 7.68457C129.546 7.68457 131.701 8.90234 133.325 11.3379C134.949 13.7454 135.761 16.4329 135.761 19.4004C135.761 20.6602 135.621 21.9199 135.341 23.1797C135.089 24.4115 134.683 25.6292 134.123 26.833C133.563 28.0368 132.751 29.0446 131.688 29.8564C130.652 30.6403 129.434 31.0882 128.034 31.2002C125.459 30.8643 123.471 29.7725 122.071 27.9248C120.672 26.0492 119.972 23.7536 119.972 21.0381ZM127.11 9.86816C126.131 9.98014 125.305 10.876 124.633 12.5557C123.961 14.2354 123.527 15.873 123.331 17.4688C123.135 19.0365 123.037 20.4222 123.037 21.626C123.037 23.1937 123.513 24.6494 124.465 25.9932C125.445 27.3089 126.536 27.9668 127.74 27.9668C128.608 27.9668 129.392 27.6309 130.092 26.959C130.792 26.2871 131.338 25.4613 131.729 24.4814C132.149 23.4736 132.457 22.4658 132.653 21.458C132.877 20.4502 132.989 19.5544 132.989 18.7705C132.989 16.4749 132.471 14.4733 131.436 12.7656C130.4 11.0579 128.958 10.0921 127.11 9.86816ZM139.456 8.98633L153.607 9.1123L154.573 29.4785C154.321 30.3184 153.831 30.7383 153.104 30.7383C152.6 30.7383 152.11 30.5283 151.634 30.1084C151.158 29.7165 150.864 29.2266 150.752 28.6387C150.78 28.1348 150.822 26.5531 150.878 23.8936C150.962 21.2061 151.046 18.6445 151.13 16.209C151.214 13.7454 151.27 12.1497 151.298 11.4219C150.514 11.3659 149.352 11.3379 147.812 11.3379C145.713 11.3379 143.963 11.2539 142.563 11.0859C142.647 12.0098 142.717 14.9912 142.773 20.0303C142.829 25.0413 142.885 27.9528 142.941 28.7646C142.689 29.6325 142.2 30.0664 141.472 30.0664C140.968 30.0664 140.478 29.8704 140.002 29.4785C139.554 29.0586 139.274 28.5547 139.162 27.9668C139.246 26.5671 139.288 25.1673 139.288 23.7676C139.288 23.0397 139.274 21.8359 139.246 20.1562C139.218 18.4766 139.204 17.1468 139.204 16.167C139.204 13.2835 139.288 10.89 139.456 8.98633ZM158.479 7.89453L160.83 8.31445C160.83 8.90234 160.844 9.33626 160.872 9.61621C162.412 8.63639 163.965 8.14648 165.533 8.14648C168.081 8.14648 170.068 9.23828 171.496 11.4219C172.924 13.6055 173.638 16.083 173.638 18.8545C173.638 20.2542 173.526 21.598 173.302 22.8857C173.106 24.1455 172.742 25.4473 172.21 26.791C171.678 28.1068 170.852 29.1706 169.732 29.9824C168.641 30.7663 167.311 31.1582 165.743 31.1582C164.259 31.1582 162.832 30.7663 161.46 29.9824C161.572 34.8815 161.67 38.5208 161.754 40.9004C161.502 41.7682 161.012 42.2021 160.284 42.2021C159.78 42.2021 159.29 41.9922 158.814 41.5723C158.367 41.1803 158.087 40.6904 157.975 40.1025L158.479 7.89453ZM161.208 12.3457L161.334 25.9092C161.67 26.5811 162.188 27.127 162.888 27.5469C163.588 27.9388 164.357 28.1348 165.197 28.1348C166.289 28.1348 167.213 27.7848 167.969 27.085C168.753 26.3851 169.299 25.4613 169.606 24.3135C169.942 23.1377 170.166 22.0459 170.278 21.0381C170.418 20.0303 170.488 18.9665 170.488 17.8467C170.488 13.0876 168.879 10.708 165.659 10.708C164.623 10.708 163.658 10.862 162.762 11.1699C161.894 11.4499 161.376 11.8418 161.208 12.3457ZM180.734 26.4971C180.734 26.973 180.762 27.6029 180.818 28.3867C180.566 29.2546 180.076 29.6885 179.349 29.6885C178.845 29.6885 178.355 29.4925 177.879 29.1006C177.431 28.6807 177.151 28.1768 177.039 27.5889C177.123 25.3213 177.221 22.0039 177.333 17.6367C177.473 13.2695 177.571 10.3161 177.627 8.77637L179.559 8.44043C179.895 10.2321 180.104 12.6117 180.188 15.5791C180.272 18.5465 180.384 20.7581 180.524 22.2139C181.056 21.43 182.568 19.3864 185.06 16.083C187.551 12.7796 189.245 10.3161 190.141 8.69238C190.757 8.5804 191.148 8.52441 191.316 8.52441C191.848 8.52441 192.212 8.76237 192.408 9.23828C192.632 9.71419 192.772 10.61 192.828 11.9258L193.626 29.2266C193.374 30.0664 192.884 30.4863 192.156 30.4863C191.652 30.4863 191.162 30.2904 190.687 29.8984C190.239 29.4785 189.959 28.9746 189.847 28.3867C189.875 27.4629 189.945 25.2093 190.057 21.626C190.197 18.0146 190.309 15.4531 190.393 13.9414C185.605 19.4004 182.386 23.5856 180.734 26.4971ZM211.473 8.18848L212.103 30.7383C211.823 31.5781 211.347 31.998 210.675 31.998C210.199 31.998 209.723 31.8021 209.247 31.4102C208.799 31.0182 208.519 30.5423 208.407 29.9824L208.827 20.8701C207.651 21.626 206.434 22.0179 205.174 22.0459C204.11 25.5452 202.766 28.1068 201.143 29.7305C199.547 31.3542 196.985 32.6559 193.458 33.6357L192.786 31.8301C198.021 30.5143 201.003 27.057 201.73 21.458C200.387 20.8981 199.267 20.0443 198.371 18.8965C197.503 17.7487 197.069 16.4329 197.069 14.9492C197.069 11.9818 197.825 10.0081 199.337 9.02832C200.849 8.0485 203.242 7.55859 206.518 7.55859C208.225 7.55859 209.877 7.76855 211.473 8.18848ZM209.163 17.3428L208.953 10.708C207.973 10.4001 206.532 10.2461 204.628 10.2461C203.284 10.2461 202.136 10.554 201.185 11.1699C200.233 11.7578 199.757 12.7236 199.757 14.0674C199.757 15.5791 200.359 16.8809 201.562 17.9727C202.766 19.0365 204.082 19.5684 205.51 19.5684C207.189 19.5684 208.407 18.8265 209.163 17.3428ZM214.202 10.708L213.824 8.86035C217.576 8.63639 223.482 8.32845 231.545 7.93652C232.217 7.96452 232.791 8.21647 233.267 8.69238C233.743 9.16829 233.98 9.6722 233.98 10.2041C233.98 11.0439 233.421 11.5199 232.301 11.6318L224.448 11.2539C224.588 13.3535 224.658 16.4189 224.658 20.4502C224.686 24.4535 224.742 27.3789 224.826 29.2266C224.574 30.0384 224.084 30.4443 223.356 30.4443C222.881 30.4443 222.419 30.2484 221.971 29.8564C221.523 29.4645 221.243 28.9886 221.131 28.4287C221.523 21.542 221.929 15.7611 222.349 11.0859L214.202 10.708ZM239.397 26.4971C239.397 26.973 239.425 27.6029 239.481 28.3867C239.229 29.2546 238.74 29.6885 238.012 29.6885C237.508 29.6885 237.018 29.4925 236.542 29.1006C236.094 28.6807 235.814 28.1768 235.702 27.5889C235.786 25.3213 235.884 22.0039 235.996 17.6367C236.136 13.2695 236.234 10.3161 236.29 8.77637L238.222 8.44043C238.558 10.2321 238.768 12.6117 238.852 15.5791C238.936 18.5465 239.048 20.7581 239.188 22.2139C239.719 21.43 241.231 19.3864 243.723 16.083C246.214 12.7796 247.908 10.3161 248.804 8.69238C249.42 8.5804 249.812 8.52441 249.979 8.52441C250.511 8.52441 250.875 8.76237 251.071 9.23828C251.295 9.71419 251.435 10.61 251.491 11.9258L252.289 29.2266C252.037 30.0664 251.547 30.4863 250.819 30.4863C250.315 30.4863 249.826 30.2904 249.35 29.8984C248.902 29.4785 248.622 28.9746 248.51 28.3867C248.538 27.4629 248.608 25.2093 248.72 21.626C248.86 18.0146 248.972 15.4531 249.056 13.9414C244.269 19.4004 241.049 23.5856 239.397 26.4971ZM270.136 8.18848L270.766 30.7383C270.486 31.5781 270.01 31.998 269.338 31.998C268.862 31.998 268.386 31.8021 267.91 31.4102C267.462 31.0182 267.182 30.5423 267.07 29.9824L267.49 20.8701C266.314 21.626 265.097 22.0179 263.837 22.0459C262.773 25.5452 261.429 28.1068 259.806 29.7305C258.21 31.3542 255.648 32.6559 252.121 33.6357L251.449 31.8301C256.684 30.5143 259.666 27.057 260.394 21.458C259.05 20.8981 257.93 20.0443 257.034 18.8965C256.166 17.7487 255.732 16.4329 255.732 14.9492C255.732 11.9818 256.488 10.0081 258 9.02832C259.512 8.0485 261.905 7.55859 265.181 7.55859C266.888 7.55859 268.54 7.76855 270.136 8.18848ZM267.826 17.3428L267.616 10.708C266.636 10.4001 265.195 10.2461 263.291 10.2461C261.947 10.2461 260.799 10.554 259.848 11.1699C258.896 11.7578 258.42 12.7236 258.42 14.0674C258.42 15.5791 259.022 16.8809 260.226 17.9727C261.429 19.0365 262.745 19.5684 264.173 19.5684C265.853 19.5684 267.07 18.8265 267.826 17.3428ZM63.0513 68.0381C63.0513 66.9183 63.1632 65.6725 63.3872 64.3008C63.6392 62.929 64.0031 61.4873 64.479 59.9756C64.9549 58.4639 65.6688 57.2041 66.6206 56.1963C67.5724 55.1885 68.6782 54.6846 69.938 54.6846C72.6255 54.6846 74.7811 55.9023 76.4048 58.3379C78.0285 60.7454 78.8403 63.4329 78.8403 66.4004C78.8403 67.6602 78.7004 68.9199 78.4204 70.1797C78.1685 71.4115 77.7625 72.6292 77.2026 73.833C76.6427 75.0368 75.8309 76.0446 74.7671 76.8564C73.7313 77.6403 72.5135 78.0882 71.1138 78.2002C68.5382 77.8643 66.5506 76.7725 65.1509 74.9248C63.7511 73.0492 63.0513 70.7536 63.0513 68.0381ZM70.1899 56.8682C69.2101 56.9801 68.3843 57.876 67.7124 59.5557C67.0405 61.2354 66.6066 62.873 66.4106 64.4688C66.2147 66.0365 66.1167 67.4222 66.1167 68.626C66.1167 70.1937 66.5926 71.6494 67.5444 72.9932C68.5243 74.3089 69.616 74.9668 70.8198 74.9668C71.6877 74.9668 72.4715 74.6309 73.1714 73.959C73.8713 73.2871 74.4172 72.4613 74.8091 71.4814C75.229 70.4736 75.5369 69.4658 75.7329 68.458C75.9569 67.4502 76.0688 66.5544 76.0688 65.7705C76.0688 63.4749 75.5509 61.4733 74.5151 59.7656C73.4793 58.0579 72.0376 57.0921 70.1899 56.8682ZM96.3931 56.1543L96.1831 57.96C95.0073 57.792 93.9995 57.708 93.1597 57.708C91.228 57.708 89.6323 58.2959 88.3726 59.4717C87.1128 60.6195 86.245 61.9912 85.769 63.5869C85.3211 65.1546 85.0972 66.9043 85.0972 68.8359C85.0972 69.7318 85.1532 70.5296 85.2651 71.2295C85.3771 71.9294 85.5731 72.6152 85.853 73.2871C86.161 73.959 86.6229 74.4909 87.2388 74.8828C87.8826 75.2467 88.6665 75.4287 89.5903 75.4287C90.8221 75.4287 92.3898 75.1908 94.2935 74.7148C94.8813 74.4909 95.3433 74.3789 95.6792 74.3789C96.3511 74.3789 96.757 75.1628 96.897 76.7305C94.4334 77.5143 92.1519 77.9062 90.0522 77.9062C87.0008 77.9062 84.9292 77.1644 83.8374 75.6807C82.7736 74.1689 82.2417 71.7334 82.2417 68.374C82.2417 66.4144 82.3677 64.7067 82.6196 63.251C82.8996 61.7673 83.3755 60.3955 84.0474 59.1357C84.7192 57.848 85.6851 56.8682 86.9448 56.1963C88.2326 55.5244 89.8003 55.1885 91.6479 55.1885C93.7196 55.1885 95.3013 55.5104 96.3931 56.1543ZM97.6948 57.708L97.3169 55.8604C101.068 55.6364 106.975 55.3285 115.038 54.9365C115.709 54.9645 116.283 55.2165 116.759 55.6924C117.235 56.1683 117.473 56.6722 117.473 57.2041C117.473 58.0439 116.913 58.5199 115.793 58.6318L107.941 58.2539C108.081 60.3535 108.151 63.4189 108.151 67.4502C108.179 71.4535 108.235 74.3789 108.319 76.2266C108.067 77.0384 107.577 77.4443 106.849 77.4443C106.373 77.4443 105.911 77.2484 105.463 76.8564C105.015 76.4645 104.736 75.9886 104.624 75.4287C105.015 68.542 105.421 62.7611 105.841 58.0859L97.6948 57.708ZM120.707 58.8418L119.867 56.7002C120.595 55.9723 121.518 55.3984 122.638 54.9785C123.758 54.5306 124.864 54.3066 125.956 54.3066C130.687 54.3066 133.052 58.3939 133.052 66.5684C133.052 67.6882 132.982 69.3398 132.842 71.5234C132.73 73.707 132.674 75.3447 132.674 76.4365C132.45 77.3044 132.016 77.7383 131.373 77.7383C130.869 77.7383 130.407 77.4863 129.987 76.9824C129.567 76.4785 129.357 75.9186 129.357 75.3027C129.357 75.1068 129.371 74.9668 129.399 74.8828C127.663 76.5625 125.816 77.4023 123.856 77.4023C122.372 77.4023 121.07 76.8704 119.951 75.8066C118.859 74.7148 118.313 73.3991 118.313 71.8594C118.313 69.2559 119.321 66.9043 121.336 64.8047C123.38 62.7051 125.69 61.6553 128.265 61.6553C128.377 61.6553 128.489 61.6693 128.601 61.6973C128.713 61.6973 128.839 61.7113 128.979 61.7393C129.147 61.7673 129.273 61.7812 129.357 61.7812C129.133 58.5059 127.831 56.8682 125.452 56.8682C124.052 56.8682 122.47 57.526 120.707 58.8418ZM129.483 71.9854C129.539 70.0257 129.567 68.542 129.567 67.5342C129.567 66.6943 129.539 65.5186 129.483 64.0068H129.147C127.159 64.0348 125.34 64.7767 123.688 66.2324C122.064 67.6882 121.252 69.4518 121.252 71.5234C121.252 72.4193 121.518 73.1331 122.05 73.665C122.61 74.1969 123.282 74.4629 124.066 74.4629C125.298 74.4629 127.103 73.637 129.483 71.9854ZM131.96 80.7617L131.289 78.9561C132.212 78.5921 133.052 78.0182 133.808 77.2344C134.536 76.4505 135.138 75.6387 135.614 74.7988C136.09 73.931 136.496 72.8532 136.832 71.5654C137.167 70.2777 137.405 69.1579 137.545 68.2061C137.713 67.2262 137.839 66.0225 137.923 64.5947C138.007 63.167 138.049 62.1032 138.049 61.4033C138.077 60.6755 138.091 59.7096 138.091 58.5059C138.091 56.7982 138.245 55.7764 138.553 55.4404C138.945 55.0205 141.115 54.8105 145.062 54.8105C148.169 54.8105 149.933 54.7965 150.353 54.7686C150.409 66.1344 150.549 73.5111 150.773 76.8984C150.493 77.7383 150.003 78.1582 149.303 78.1582C148.827 78.1582 148.365 77.9622 147.917 77.5703C147.47 77.1784 147.19 76.7025 147.078 76.1426C147.05 75.0508 147.036 73.4271 147.036 71.2715C147.036 70.2077 147.036 68.598 147.036 66.4424C147.064 64.2868 147.078 62.6631 147.078 61.5713C147.078 59.5557 147.064 58.0439 147.036 57.0361C145.86 57.2321 144.698 57.3441 143.55 57.3721C142.403 57.4001 141.591 57.4421 141.115 57.498C141.031 58.4219 140.961 59.7936 140.905 61.6133C140.849 63.4329 140.793 65.0426 140.737 66.4424C140.709 67.8141 140.541 69.3818 140.233 71.1455C139.925 72.8812 139.477 74.3649 138.889 75.5967C138.329 76.8005 137.447 77.8783 136.244 78.8301C135.068 79.8099 133.64 80.4538 131.96 80.7617ZM154.174 68.0381C154.174 66.9183 154.286 65.6725 154.51 64.3008C154.762 62.929 155.126 61.4873 155.602 59.9756C156.078 58.4639 156.792 57.2041 157.744 56.1963C158.695 55.1885 159.801 54.6846 161.061 54.6846C163.749 54.6846 165.904 55.9023 167.528 58.3379C169.152 60.7454 169.963 63.4329 169.963 66.4004C169.963 67.6602 169.823 68.9199 169.543 70.1797C169.292 71.4115 168.886 72.6292 168.326 73.833C167.766 75.0368 166.954 76.0446 165.89 76.8564C164.854 77.6403 163.637 78.0882 162.237 78.2002C159.661 77.8643 157.674 76.7725 156.274 74.9248C154.874 73.0492 154.174 70.7536 154.174 68.0381ZM161.313 56.8682C160.333 56.9801 159.507 57.876 158.835 59.5557C158.164 61.2354 157.73 62.873 157.534 64.4688C157.338 66.0365 157.24 67.4222 157.24 68.626C157.24 70.1937 157.716 71.6494 158.667 72.9932C159.647 74.3089 160.739 74.9668 161.943 74.9668C162.811 74.9668 163.595 74.6309 164.294 73.959C164.994 73.2871 165.54 72.4613 165.932 71.4814C166.352 70.4736 166.66 69.4658 166.856 68.458C167.08 67.4502 167.192 66.5544 167.192 65.7705C167.192 63.4749 166.674 61.4733 165.638 59.7656C164.602 58.0579 163.161 57.0921 161.313 56.8682ZM187.516 56.1543L187.306 57.96C186.13 57.792 185.123 57.708 184.283 57.708C182.351 57.708 180.755 58.2959 179.496 59.4717C178.236 60.6195 177.368 61.9912 176.892 63.5869C176.444 65.1546 176.22 66.9043 176.22 68.8359C176.22 69.7318 176.276 70.5296 176.388 71.2295C176.5 71.9294 176.696 72.6152 176.976 73.2871C177.284 73.959 177.746 74.4909 178.362 74.8828C179.006 75.2467 179.79 75.4287 180.713 75.4287C181.945 75.4287 183.513 75.1908 185.417 74.7148C186.004 74.4909 186.466 74.3789 186.802 74.3789C187.474 74.3789 187.88 75.1628 188.02 76.7305C185.556 77.5143 183.275 77.9062 181.175 77.9062C178.124 77.9062 176.052 77.1644 174.96 75.6807C173.897 74.1689 173.365 71.7334 173.365 68.374C173.365 66.4144 173.491 64.7067 173.743 63.251C174.023 61.7673 174.499 60.3955 175.17 59.1357C175.842 57.848 176.808 56.8682 178.068 56.1963C179.356 55.5244 180.923 55.1885 182.771 55.1885C184.843 55.1885 186.424 55.5104 187.516 56.1543ZM190.288 55.6924L192.177 56.1123C192.233 57.0081 192.317 58.0579 192.429 59.2617C192.569 60.4655 192.723 61.8372 192.891 63.377C194.011 63.041 195.075 62.873 196.083 62.873C197.286 62.873 198.406 63.111 199.442 63.5869C200.478 64.0348 201.36 64.6367 202.087 65.3926C202.815 66.1484 203.389 67.0163 203.809 67.9961C204.229 68.9479 204.439 69.9277 204.439 70.9355C204.439 71.9154 204.229 72.8112 203.809 73.623C203.389 74.4349 202.829 75.1348 202.129 75.7227C201.43 76.2826 200.618 76.7165 199.694 77.0244C198.77 77.3604 197.79 77.5283 196.754 77.5283C196.558 77.5283 196.125 77.5143 195.453 77.4863C194.781 77.4583 194.067 77.3883 193.311 77.2764C192.583 77.1924 191.925 77.0664 191.337 76.8984C190.75 76.7305 190.442 76.4925 190.414 76.1846C190.414 75.7087 190.4 75.0648 190.372 74.2529C190.372 73.4131 190.358 72.4893 190.33 71.4814C190.33 70.4736 190.316 69.4238 190.288 68.332C190.26 67.2122 190.232 66.1344 190.204 65.0986C190.204 64.0628 190.19 63.111 190.162 62.2432C190.162 61.3753 190.162 60.6895 190.162 60.1855C190.162 58.6178 190.204 57.1201 190.288 55.6924ZM193.269 65.9805L192.891 74.4209C194.011 74.8128 195.075 75.0088 196.083 75.0088C196.866 75.0088 197.58 74.8828 198.224 74.6309C198.896 74.3509 199.456 74.001 199.904 73.5811C200.352 73.1331 200.702 72.6292 200.954 72.0693C201.206 71.5094 201.332 70.9215 201.332 70.3057C201.332 69.6898 201.206 69.1159 200.954 68.584C200.702 68.0241 200.324 67.5342 199.82 67.1143C199.316 66.6943 198.7 66.3724 197.972 66.1484C197.244 65.8965 196.418 65.7705 195.495 65.7705C195.187 65.7705 194.851 65.7985 194.487 65.8545C194.123 65.8825 193.717 65.9245 193.269 65.9805ZM207.63 71.8594C208.386 71.8594 209.016 72.1953 209.52 72.8672C210.052 73.5111 210.318 74.2529 210.318 75.0928C210.318 75.7087 210.164 76.2126 209.856 76.6045C209.576 76.9684 209.184 77.1504 208.68 77.1504C207.896 77.1504 207.266 76.8145 206.791 76.1426C206.343 75.4707 206.119 74.7288 206.119 73.917C206.119 73.3011 206.245 72.8112 206.497 72.4473C206.777 72.0553 207.154 71.8594 207.63 71.8594ZM207.63 55.6924C208.386 55.6924 209.016 56.0283 209.52 56.7002C210.052 57.3441 210.318 58.0859 210.318 58.9258C210.318 59.5417 210.164 60.0456 209.856 60.4375C209.576 60.8014 209.184 60.9834 208.68 60.9834C207.896 60.9834 207.266 60.6615 206.791 60.0176C206.343 59.3737 206.119 58.6178 206.119 57.75C206.119 57.1341 206.245 56.6442 206.497 56.2803C206.777 55.8883 207.154 55.6924 207.63 55.6924Z" fill="white"/>
</svg>
